<svg width="190" height="34" viewBox="0 0 190 34" fill="none" xmlns="http://www.w3.org/2000/svg">
<path d="M54.3154 21.5298H48.4092V25.5288H55.3408V28H45.333V13.0703H55.3203V15.562H48.4092V19.1201H54.3154V21.5298ZM70.1261 28H67.05L61.0617 18.1768V28H57.9855V13.0703H61.0617L67.0602 22.9141V13.0703H70.1261V28ZM84.5833 15.562H80.0101V28H76.9339V15.562H72.4222V13.0703H84.5833V15.562ZM99.1636 20.8735C99.1636 22.3433 98.9038 23.6318 98.3843 24.7393C97.8647 25.8467 97.1196 26.7012 96.1489 27.3027C95.185 27.9043 94.0776 28.2051 92.8266 28.2051C91.5893 28.2051 90.4853 27.9077 89.5146 27.313C88.5439 26.7183 87.792 25.8706 87.2588 24.77C86.7256 23.6626 86.4555 22.3911 86.4487 20.9556V20.2173C86.4487 18.7476 86.7119 17.4556 87.2383 16.3413C87.7715 15.2202 88.52 14.3623 89.4839 13.7676C90.4546 13.166 91.562 12.8652 92.8061 12.8652C94.0503 12.8652 95.1543 13.166 96.1181 13.7676C97.0888 14.3623 97.8374 15.2202 98.3638 16.3413C98.897 17.4556 99.1636 18.7441 99.1636 20.207V20.8735ZM96.0464 20.1968C96.0464 18.6313 95.7661 17.4419 95.2055 16.6284C94.645 15.8149 93.8452 15.4082 92.8061 15.4082C91.7739 15.4082 90.9775 15.8115 90.417 16.6182C89.8564 17.418 89.5727 18.5938 89.5659 20.1455V20.8735C89.5659 22.3979 89.8462 23.5806 90.4067 24.4214C90.9673 25.2622 91.7739 25.6826 92.8266 25.6826C93.8589 25.6826 94.6518 25.2793 95.2055 24.4727C95.7593 23.6592 96.0395 22.4766 96.0464 20.9248V20.1968ZM107.766 22.5347H105.315V28H102.239V13.0703H107.786C109.55 13.0703 110.91 13.4634 111.867 14.2495C112.824 15.0356 113.303 16.1465 113.303 17.582C113.303 18.6006 113.081 19.4517 112.636 20.1353C112.199 20.812 111.532 21.3521 110.637 21.7554L113.867 27.8564V28H110.565L107.766 22.5347ZM105.315 20.043H107.797C108.569 20.043 109.167 19.8481 109.591 19.4585C110.015 19.062 110.227 18.5186 110.227 17.8281C110.227 17.124 110.025 16.5703 109.622 16.167C109.225 15.7637 108.613 15.562 107.786 15.562H105.315V20.043ZM122.484 21.862C122.196 21.34 120.882 19.27 120.36 18.604V18.082H122.412V16.102H120.36V12.754H118.272V16.102H115.932V18.082H118.146C117.624 20.242 116.652 22.78 115.572 24.166C115.914 24.742 116.382 25.714 116.58 26.326C117.21 25.39 117.786 24.058 118.272 22.564V29.548H120.36V21.268C120.72 22.024 121.062 22.798 121.26 23.302L122.484 21.862ZM132.42 22.186V20.26H128.604V17.794H131.97V15.868H128.604V12.772H126.498V15.868H125.382C125.526 15.256 125.634 14.626 125.742 13.978L123.78 13.636C123.51 15.652 122.988 17.65 122.088 18.91C122.556 19.144 123.402 19.666 123.762 19.972C124.158 19.378 124.518 18.622 124.824 17.794H126.498V20.26H122.556V22.186H125.526C124.59 24.184 123.042 26.074 121.368 27.1C121.818 27.496 122.484 28.252 122.808 28.738C124.248 27.694 125.508 26.074 126.498 24.22V29.548H128.604V24.058C129.36 25.858 130.332 27.532 131.376 28.612C131.718 28.09 132.438 27.334 132.924 26.938C131.646 25.858 130.386 24.022 129.594 22.186H132.42ZM140.376 22.024H143.256V19.954H135.534V22.024H138.252V26.362C136.956 26.578 135.768 26.758 134.85 26.902L135.444 29.062C137.766 28.558 140.934 27.91 143.886 27.262L143.724 25.354C142.626 25.57 141.474 25.786 140.376 25.984V22.024ZM150.942 17.902V15.814H149.25L150.474 14.752C149.988 14.158 148.926 13.312 148.116 12.754L146.694 13.924C147.414 14.464 148.314 15.202 148.8 15.814H145.956C145.92 14.842 145.92 13.834 145.938 12.844H143.634C143.634 13.834 143.652 14.842 143.688 15.814H134.85V17.902H143.796C144.228 24.238 145.578 29.566 148.656 29.566C150.366 29.566 151.086 28.738 151.41 25.336C150.816 25.102 150.024 24.58 149.538 24.076C149.448 26.362 149.232 27.316 148.854 27.316C147.54 27.316 146.442 23.158 146.064 17.902H150.942ZM158.286 18.154C159.654 17.092 160.806 15.922 161.58 14.824C162.408 15.94 163.65 17.11 165.036 18.154H158.286ZM157.404 20.116H165.81V18.694C166.8 19.378 167.844 19.972 168.834 20.44C169.212 19.81 169.68 19.036 170.22 18.478C167.376 17.47 164.514 15.418 162.606 12.772H160.374C159.024 14.896 156.162 17.452 153.102 18.802C153.552 19.27 154.11 20.08 154.362 20.602C155.406 20.098 156.45 19.486 157.404 18.802V20.116ZM154.218 23.59H158.394C158.016 24.652 157.512 25.84 157.026 26.848L154.308 26.938L154.596 29.026C157.656 28.882 162.102 28.702 166.332 28.468C166.62 28.864 166.872 29.242 167.052 29.584L169.05 28.378C168.204 27.028 166.53 25.156 164.928 23.752L163.038 24.742C163.632 25.282 164.244 25.93 164.802 26.578C162.966 26.65 161.112 26.722 159.384 26.776C159.924 25.768 160.518 24.652 161.04 23.59H169.104V21.61H154.218V23.59ZM179.868 22.924C179.49 22.564 178.104 21.322 177.24 20.62C178.104 19.432 178.824 18.136 179.364 16.768L178.158 15.994L177.78 16.084H176.97V12.772H174.846V16.084H172.29V18.028H176.628C175.458 20.098 173.568 21.988 171.606 23.05C171.93 23.464 172.434 24.508 172.614 25.084C173.37 24.616 174.126 24.022 174.846 23.356V29.566H176.97V22.78C177.582 23.446 178.194 24.166 178.572 24.67L179.868 22.924ZM185.052 26.956V20.368H188.454V18.298H185.052V12.916H182.856V18.298H179.436V20.368H182.856V26.956H178.698V29.044H188.886V26.956H185.052Z" fill="white"/>
<path fill-rule="evenodd" clip-rule="evenodd" d="M32.8676 18.6001H22.7686V25.646H30.2353C31.6145 23.5788 32.5396 21.1826 32.8676 18.6001ZM25.9893 30C23.3052 31.8901 20.0322 33 16.5 33C7.3873 33 0 25.6127 0 16.5C0 7.3873 7.3873 0 16.5 0C20.4457 0 24.068 1.38498 26.9071 3.69531H17.3486V30H25.9893ZM30.6961 8.08545C31.8134 9.96635 32.5675 12.0883 32.8618 14.3545H22.7686V8.08545H30.6961Z" fill="white"/>
</svg>
